<svg xmlns="http://www.w3.org/2000/svg" xmlns:lucid="lucid" width="440" height="398.72"><g lucid:page-tab-id="0_0"><path d="M0 284.72a6 6 0 0 1 6-6h428a6 6 0 0 1 6 6v108a6 6 0 0 1-6 6H6a6 6 0 0 1-6-6zM0 145.36a6 6 0 0 1 6-6h428a6 6 0 0 1 6 6v108a6 6 0 0 1-6 6H6a6 6 0 0 1-6-6zM0 6a6 6 0 0 1 6-6h428a6 6 0 0 1 6 6v108a6 6 0 0 1-6 6H6a6 6 0 0 1-6-6z" fill="#023047"/><path d="M280 26a6 6 0 0 1 6-6h108a6 6 0 0 1 6 6v68a6 6 0 0 1-6 6H286a6 6 0 0 1-6-6z" fill="#8ecae6"/><path d="M215.76 162.05a5.98 5.98 0 0 1 8.48 0l32.97 33.06a6.02 6.02 0 0 1 0 8.5l-32.96 33.07a5.98 5.98 0 0 1-8.48 0L182.8 203.6a6.02 6.02 0 0 1 0-8.5z" stroke="#8ecae6" stroke-width="8" fill="#8ecae6"/><path d="M266.98 199.36H334a6 6 0 0 0 6-6V104" stroke="#8ecae6" stroke-width="8" fill="none"/><path d="M267.08 203.33h-4.96l.37-.88.35-1.53.13-1.56-.13-1.57-.36-1.54-.38-.88h4.96zM343.97 104.1h-7.94V100h7.94z" stroke="#8ecae6" stroke-width=".05" fill="#8ecae6"/><path d="M20 306a6 6 0 0 1 6-6h108a6 6 0 0 1 6 6v68a6 6 0 0 1-6 6H26a6 6 0 0 1-6-6z" fill="#8ecae6"/><path d="M173.02 199.36H86a6 6 0 0 0-6 6V296" stroke="#8ecae6" stroke-width="8" fill="none"/><path d="M177.5 196.26l-.35 1.53-.13 1.56.13 1.56.36 1.53.38.88h-4.96v-7.95h4.96zM83.97 300h-7.94v-4.1h7.94z" stroke="#8ecae6" stroke-width=".05" fill="#8ecae6"/></g></svg>