<svg xmlns="http://www.w3.org/2000/svg" xmlns:xlink="http://www.w3.org/1999/xlink" xmlns:lucid="lucid" width="2440" height="442"><g transform="translate(-1160 205.31602497237424)" lucid:page-tab-id="0_0"><path d="M1000-1000h3000V500H1000z" fill="#fff"/><path d="M1160 101.04a6 6 0 0 1 6-6h428a6 6 0 0 1 6 6v108a6 6 0 0 1-6 6h-428a6 6 0 0 1-6-6zM1160-38.32a6 6 0 0 1 6-6h428a6 6 0 0 1 6 6v108a6 6 0 0 1-6 6h-428a6 6 0 0 1-6-6zM1160-177.68a6 6 0 0 1 6-6h428a6 6 0 0 1 6 6v108a6 6 0 0 1-6 6h-428a6 6 0 0 1-6-6z" fill="#8ecae6"/><path d="M1460-157.68a6 6 0 0 1 6-6h108a6 6 0 0 1 6 6v68a6 6 0 0 1-6 6h-108a6 6 0 0 1-6-6z" fill="#023047"/><path d="M1375.76-21.62a5.98 5.98 0 0 1 8.48 0l32.97 33.06a6.02 6.02 0 0 1 0 8.5l-32.96 33.05a5.98 5.98 0 0 1-8.48 0l-32.97-33.07a6.02 6.02 0 0 1 0-8.5z" stroke="#023047" stroke-width="8" fill="#023047"/><path d="M1426.98 15.68H1514a6 6 0 0 0 6-6v-89.35" stroke="#023047" stroke-width="8" fill="none"/><path d="M1427.08 19.66h-4.96l.37-.88.35-1.53.13-1.57-.13-1.56-.36-1.53-.38-.9h4.96zM1523.97-79.57h-7.94v-4.1h7.94z" stroke="#023047" stroke-width=".05" fill="#023047"/><path d="M1180 122.33a6 6 0 0 1 6-6h108a6 6 0 0 1 6 6v68a6 6 0 0 1-6 6h-108a6 6 0 0 1-6-6z" fill="#023047"/><path d="M1333.06 15.2H1246a6 6 0 0 0-6 6v91.13" stroke="#023047" stroke-width="8" fill="none"/><path d="M1337.5 12.6l-.35 1.52-.13 1.56.13 1.57.36 1.53.18.4h-4.72v-7.94h5.1zM1243.97 116.33h-7.94v-4.1h7.94z" stroke="#023047" stroke-width=".05" fill="#023047"/><path d="M1560-199.32a6 6 0 0 1 6-6h2028a6 6 0 0 1 6 6v430a6 6 0 0 1-6 6H1566a6 6 0 0 1-6-6z" stroke="#000" stroke-opacity="0" stroke-width="2" fill="#fff" fill-opacity="0"/><use xlink:href="#a" transform="matrix(1,0,0,1,1565,-200.31602497237424) translate(151.9966666666669 263.08333333333326)"/><use xlink:href="#b" transform="matrix(1,0,0,1,1565,-200.31602497237424) translate(614.7966666666669 263.08333333333326)"/><defs><path fill="#8ecae6" d="M512-580c72 0 130 58 130 130V0H182C110 0 52-58 52-130v-214h482v-106c0-12-10-22-22-22H52v-108h460zm22 472v-128H160v106c0 12 10 22 22 22h352" id="c"/><path fill="#8ecae6" d="M508-580c79 2 138 64 130 152H530c2-23-1-44-22-44H178c-38 4-22 69-22 106 0 12 10 22 22 22h330c72 0 130 58 130 130v84C638-58 580 0 508 0H178C99-2 40-64 48-152h108c-2 23 1 44 22 44h330c38-4 22-69 22-106 0-12-10-22-22-22H178c-72 0-130-58-130-130v-84c0-72 58-130 130-130h330" id="d"/><g id="a"><use transform="matrix(0.19777777777777772,0,0,0.19777777777777772,0,0)" xlink:href="#c"/><use transform="matrix(0.19777777777777772,0,0,0.19777777777777772,137.25777777777773,0)" xlink:href="#c"/><use transform="matrix(0.19777777777777772,0,0,0.19777777777777772,269.7688888888888,0)" xlink:href="#d"/></g><path fill="#8ecae6" d="M795-580c72 0 130 58 130 130V0H818v-450c0-12-10-22-23-22H566c-12 0-22 10-22 22V0H436v-450c0-12-10-22-22-22H184c-12 0-22 10-22 22V0H54v-580h741" id="e"/><path fill="#8ecae6" d="M52 0v-580h108V0H52zm0-770h108v108H52v-108" id="f"/><path fill="#8ecae6" d="M505-770h108V0H153C81 0 23-58 23-130v-320c0-72 58-130 130-130h352v-190zM153-108h330c12 0 22-10 22-22v-320c0-12-10-22-22-22H153c-12 0-22 10-22 22v320c0 12 10 22 22 22" id="g"/><path fill="#8ecae6" d="M52-770h108v640c0 12 10 22 22 22h108V0H182C110 0 52-58 52-130v-640" id="h"/><path fill="#8ecae6" d="M511-580c72 0 130 58 130 130v214H159v106c0 12 10 22 22 22h460V0H181C109 0 51-58 51-130v-320c0-72 58-130 130-130h330zM159-344h374v-106c0-12-10-22-22-22H181c-12 0-22 10-22 22v106" id="i"/><path fill="#8ecae6" d="M921-580h115L818 0h-88L535-431 351 0l-2-1 1 1h-87L35-580h115l157 385 167-385h123l177 385" id="j"/><path fill="#8ecae6" d="M182-580h324v108H182c-12 0-22 10-22 22V0H52v-450c0-72 58-130 130-130" id="k"/><g id="b"><use transform="matrix(0.19777777777777772,0,0,0.19777777777777772,0,0)" xlink:href="#e"/><use transform="matrix(0.19777777777777772,0,0,0.19777777777777772,193.42666666666662,0)" xlink:href="#f"/><use transform="matrix(0.19777777777777772,0,0,0.19777777777777772,234.56444444444438,0)" xlink:href="#g"/><use transform="matrix(0.19777777777777772,0,0,0.19777777777777772,366.4822222222221,0)" xlink:href="#g"/><use transform="matrix(0.19777777777777772,0,0,0.19777777777777772,498.39999999999986,0)" xlink:href="#h"/><use transform="matrix(0.19777777777777772,0,0,0.19777777777777772,558.1288888888887,0)" xlink:href="#i"/><use transform="matrix(0.19777777777777772,0,0,0.19777777777777772,687.0799999999997,0)" xlink:href="#j"/><use transform="matrix(0.19777777777777772,0,0,0.19777777777777772,891.7799999999995,0)" xlink:href="#c"/><use transform="matrix(0.19777777777777772,0,0,0.19777777777777772,1025.0822222222218,0)" xlink:href="#k"/><use transform="matrix(0.19777777777777772,0,0,0.19777777777777772,1126.344444444444,0)" xlink:href="#i"/></g></defs></g></svg>