<svg xmlns="http://www.w3.org/2000/svg" xmlns:xlink="http://www.w3.org/1999/xlink" xmlns:lucid="lucid" width="4700" height="930"><g transform="translate(-1120 -220)" lucid:page-tab-id="0_0"><path d="M1120 741.04a6 6 0 0 1 6-6h428a6 6 0 0 1 6 6v108a6 6 0 0 1-6 6h-428a6 6 0 0 1-6-6zM1120 601.68a6 6 0 0 1 6-6h428a6 6 0 0 1 6 6v108a6 6 0 0 1-6 6h-428a6 6 0 0 1-6-6zM1120 462.32a6 6 0 0 1 6-6h428a6 6 0 0 1 6 6v108a6 6 0 0 1-6 6h-428a6 6 0 0 1-6-6z" fill="#8ecae6"/><path d="M1420 482.32a6 6 0 0 1 6-6h108a6 6 0 0 1 6 6v68a6 6 0 0 1-6 6h-108a6 6 0 0 1-6-6z" fill="#023047"/><path d="M1335.76 618.38a5.98 5.98 0 0 1 8.48 0l32.97 33.06a6.02 6.02 0 0 1 0 8.5l-32.96 33.05a5.98 5.98 0 0 1-8.48 0l-32.97-33.07a6.02 6.02 0 0 1 0-8.5z" stroke="#023047" stroke-width="8" fill="#023047"/><path d="M1386.98 655.68H1474a6 6 0 0 0 6-6v-89.35" stroke="#023047" stroke-width="8" fill="none"/><path d="M1387.08 659.66h-4.96l.37-.88.35-1.53.13-1.57-.13-1.56-.36-1.53-.38-.9h4.96zM1483.97 560.43h-7.94v-4.1h7.94z" stroke="#023047" stroke-width=".05" fill="#023047"/><path d="M1140 762.33a6 6 0 0 1 6-6h108a6 6 0 0 1 6 6v68a6 6 0 0 1-6 6h-108a6 6 0 0 1-6-6z" fill="#023047"/><path d="M1293.06 655.2H1206a6 6 0 0 0-6 6v91.13" stroke="#023047" stroke-width="8" fill="none"/><path d="M1297.5 652.6l-.35 1.52-.13 1.56.13 1.57.36 1.53.18.4h-4.72v-7.94h5.1zM1203.97 756.33h-7.94v-4.1h7.94z" stroke="#023047" stroke-width=".05" fill="#023047"/><path d="M1560 226a6 6 0 0 1 6-6h4248a6 6 0 0 1 6 6v918a6 6 0 0 1-6 6H1566a6 6 0 0 1-6-6z" stroke="#000" stroke-opacity="0" stroke-width="2" fill="#fff" fill-opacity="0"/><use xlink:href="#a" transform="matrix(1,0,0,1,1565,225) translate(117.79000000000087 574.9999999999999)"/><use xlink:href="#b" transform="matrix(1,0,0,1,1565,225) translate(1194.1900000000005 574.9999999999999)"/><defs><path fill="#8ecae6" d="M512-580c72 0 130 58 130 130V0H182C110 0 52-58 52-130v-214h482v-106c0-12-10-22-22-22H52v-108h460zm22 472v-128H160v106c0 12 10 22 22 22h352" id="c"/><path fill="#8ecae6" d="M508-580c79 2 138 64 130 152H530c2-23-1-44-22-44H178c-38 4-22 69-22 106 0 12 10 22 22 22h330c72 0 130 58 130 130v84C638-58 580 0 508 0H178C99-2 40-64 48-152h108c-2 23 1 44 22 44h330c38-4 22-69 22-106 0-12-10-22-22-22H178c-72 0-130-58-130-130v-84c0-72 58-130 130-130h330" id="d"/><g id="a"><use transform="matrix(0.45999999999999985,0,0,0.45999999999999985,0,0)" xlink:href="#c"/><use transform="matrix(0.45999999999999985,0,0,0.45999999999999985,319.2399999999999,0)" xlink:href="#c"/><use transform="matrix(0.45999999999999985,0,0,0.45999999999999985,627.4399999999998,0)" xlink:href="#d"/></g><path fill="#8ecae6" d="M795-580c72 0 130 58 130 130V0H818v-450c0-12-10-22-23-22H566c-12 0-22 10-22 22V0H436v-450c0-12-10-22-22-22H184c-12 0-22 10-22 22V0H54v-580h741" id="e"/><path fill="#8ecae6" d="M52 0v-580h108V0H52zm0-770h108v108H52v-108" id="f"/><path fill="#8ecae6" d="M505-770h108V0H153C81 0 23-58 23-130v-320c0-72 58-130 130-130h352v-190zM153-108h330c12 0 22-10 22-22v-320c0-12-10-22-22-22H153c-12 0-22 10-22 22v320c0 12 10 22 22 22" id="g"/><path fill="#8ecae6" d="M52-770h108v640c0 12 10 22 22 22h108V0H182C110 0 52-58 52-130v-640" id="h"/><path fill="#8ecae6" d="M511-580c72 0 130 58 130 130v214H159v106c0 12 10 22 22 22h460V0H181C109 0 51-58 51-130v-320c0-72 58-130 130-130h330zM159-344h374v-106c0-12-10-22-22-22H181c-12 0-22 10-22 22v106" id="i"/><path fill="#8ecae6" d="M921-580h115L818 0h-88L535-431 351 0l-2-1 1 1h-87L35-580h115l157 385 167-385h123l177 385" id="j"/><path fill="#8ecae6" d="M182-580h324v108H182c-12 0-22 10-22 22V0H52v-450c0-72 58-130 130-130" id="k"/><g id="b"><use transform="matrix(0.45999999999999985,0,0,0.45999999999999985,0,0)" xlink:href="#e"/><use transform="matrix(0.45999999999999985,0,0,0.45999999999999985,449.8799999999999,0)" xlink:href="#f"/><use transform="matrix(0.45999999999999985,0,0,0.45999999999999985,545.5599999999998,0)" xlink:href="#g"/><use transform="matrix(0.45999999999999985,0,0,0.45999999999999985,852.3799999999997,0)" xlink:href="#g"/><use transform="matrix(0.45999999999999985,0,0,0.45999999999999985,1159.1999999999996,0)" xlink:href="#h"/><use transform="matrix(0.45999999999999985,0,0,0.45999999999999985,1298.1199999999994,0)" xlink:href="#i"/><use transform="matrix(0.45999999999999985,0,0,0.45999999999999985,1598.0399999999993,0)" xlink:href="#j"/><use transform="matrix(0.45999999999999985,0,0,0.45999999999999985,2074.139999999999,0)" xlink:href="#c"/><use transform="matrix(0.45999999999999985,0,0,0.45999999999999985,2384.179999999999,0)" xlink:href="#k"/><use transform="matrix(0.45999999999999985,0,0,0.45999999999999985,2619.699999999999,0)" xlink:href="#i"/></g></defs></g></svg>